<?xml version="1.0" standalone="no"?><!DOCTYPE svg PUBLIC "-//W3C//DTD SVG 1.1//EN" "http://www.w3.org/Graphics/SVG/1.1/DTD/svg11.dtd"><svg t="1750839541499" class="icon" viewBox="0 0 1024 1024" version="1.1" xmlns="http://www.w3.org/2000/svg" p-id="5557" xmlns:xlink="http://www.w3.org/1999/xlink" width="200" height="200"><path d="M233.235923 139.586293h558.354711c51.397499 0 93.060708 41.663209 93.060708 93.062298v697.947362c0 51.399089-41.661619 93.062298-93.060708 93.062298H233.235923C181.836834 1023.658251 140.173625 981.996632 140.173625 930.595953v-697.947362c0-51.392731 41.663209-93.062298 93.062298-93.062298z m0 0" fill="#FFBE00" p-id="5558"></path><path d="M791.590634 139.586293H232.422083l-0.123984 0.006359h-0.588126l-0.057224 0.006358h-0.3036l-0.057223 0.006358h-0.190744l-0.149416 0.006358h-0.187565l-0.047686 0.006358h-0.181206l-0.174849 0.006358h-0.042917l-0.130342 0.006358h-0.061991l-0.117626 0.006358-0.055633 0.006359-0.174849 0.004768h-0.012716l-0.160543 0.006358h-0.049275l-0.125573 0.006358h-0.055634l-0.130341 0.006358h-0.049276l-0.174848 0.006359h-0.036559l-0.1367 0.006358-0.055634 0.006358-0.117625 0.006358h-0.063581l-0.158953 0.006358h-0.007948l-0.166901 0.012716-0.063581 0.004769-0.111267 0.006358h-0.066761l-0.119214 0.006358-0.055634 0.006358-0.160543 0.006358-0.050865 0.006359-0.123983 0.006358h-0.06835l-0.111267 0.006358-0.055634 0.006358-0.130341 0.006358-0.044507 0.006358-0.166901 0.011127h-0.055634l-0.117625 0.006358-0.063581 0.006358-0.117626 0.006358-0.055633 0.006358-0.166901 0.012717h-0.038149l-0.1367 0.012716-0.055633 0.004769-0.117625 0.006358-0.063582 0.006358-0.116035 0.006358-0.050865 0.006358-0.166901 0.012716-0.055634 0.006358-0.117625 0.006359-0.063581 0.012716-0.117626 0.004768-0.055633 0.006359-0.34175 0.03179h-0.055633l-0.117626 0.012716-0.055633 0.006359-0.123984 0.011126-0.050865 0.006358-0.1669 0.012717-0.042918 0.006358-0.125573 0.012716-0.06835 0.006358-0.1669 0.017485-0.155775 0.012716-0.011126 0.006358-0.174849 0.012717-0.049275 0.006358-0.123984 0.012716-0.055633 0.006358-0.123984 0.011127-0.050865 0.006358-0.166901 0.019074-0.038148 0.006358-0.1367 0.012717-0.166901 0.017485-0.06835 0.006358-0.117625 0.019074-0.050865 0.006358-0.160543 0.019075-0.055633 0.006358-0.117626 0.011126-0.063581 0.006359-0.104909 0.012716-0.06835 0.006358-0.143058 0.019074-0.055633 0.006358-0.130342 0.017485-0.061991 0.006358-0.10491 0.012717-0.068349 0.012716-0.106499 0.012716-0.06835 0.006358-0.154184 0.023843-0.063582 0.006358-0.104909 0.012717-0.074708 0.012716-0.092193 0.012716-0.074708 0.006358-0.111267 0.017485-0.081066 0.012716-0.130341 0.019075-0.06835 0.006358-0.100141 0.017485-0.074708 0.006358-0.104909 0.019074-0.063581 0.006358-0.154185 0.025433-0.055633 0.006358-0.111267 0.017485-0.06835 0.006358-0.106499 0.019074-0.06835 0.006358-0.123983 0.017485-0.036559 0.006358-0.162133 0.025433-0.068349 0.012716-0.098551 0.019075-0.074708 0.011126-0.100141 0.012717-0.061992 0.012716-0.147826 0.025432-0.063581 0.006358-0.111267 0.017485-0.079477 0.012716-0.087424 0.019075-0.074708 0.012716-0.104909 0.017485-0.063582 0.006358-0.154184 0.031791-0.063581 0.006358-0.104909 0.017485-0.06835 0.012716-0.098551 0.019074-0.06835 0.012717-0.130342 0.017484-0.055633 0.012717-0.1367 0.025432-0.06835 0.006358-0.10014 0.017485-0.074708 0.019075-0.098551 0.012716-0.217766 0.042917-0.06835 0.012716-0.098551 0.019075-0.074708 0.012716-0.087424 0.011127-0.079477 0.019074-0.106498 0.019074-0.063582 0.012717-0.147826 0.03179-0.06835 0.011127-0.092193 0.019074-0.081066 0.012717-0.081066 0.017485-0.079476 0.012716-0.13829 0.03179-0.079476 0.011127-0.095372 0.019075-0.079477 0.019074-0.087424 0.019074-0.073118 0.011127-0.106499 0.025433-0.055634 0.006358-0.217765 0.042917-0.104909 0.025432-0.06835 0.012717-0.093783 0.023843-0.068349 0.012716-0.111268 0.025432-0.104909 0.019075-0.10014 0.023843-0.074708 0.012716-0.092193 0.025433-0.06835 0.011126-0.10014 0.025433-0.06835 0.012716-0.147827 0.031791-0.324264 0.073118-0.085835 0.019074-0.081066 0.019075-0.1367 0.03179-0.087424 0.023843-0.160542 0.03656-0.087425 0.019074-0.162132 0.036559-0.104909 0.025433-0.111267 0.025432-0.087424 0.023843-0.241609 0.055634-0.081066 0.025432-0.123984 0.025433-0.106498 0.023843-0.079477 0.025432-0.074708 0.019075-0.087424 0.017485-0.06835 0.019074-0.093782 0.025432-0.085835 0.017485-0.123984 0.031791-0.087424 0.025432-0.079476 0.017485-0.082656 0.025433-0.079477 0.019074-0.093782 0.023843-0.06835 0.012716-0.143058 0.044507-0.160542 0.036559-0.087424 0.025433-0.06835 0.017485-0.087425 0.025432-0.068349 0.019075-0.160543 0.042917-0.074708 0.019074-0.079477 0.017485-0.076297 0.025433-0.079477 0.019074-0.081066 0.023843-0.081066 0.019075-0.143058 0.038148-0.160542 0.047686-0.074708 0.020664-0.093783 0.017485-0.074708 0.025432-0.079476 0.019075-0.125573 0.036559-0.098551 0.025433-0.06835 0.017484-0.093782 0.031791-0.074708 0.019074-0.079477 0.023843-0.074708 0.019075-0.119215 0.036559-0.185975 0.050865-0.079477 0.023843-0.074708 0.019074-0.162132 0.049276-0.074708 0.025432-0.143058 0.042918-0.079476 0.025432-0.074708 0.019075-0.087424 0.023843-0.06835 0.025432-0.087424 0.023843-0.079477 0.025433-0.1367 0.036559-0.243198 0.074708-0.074708 0.025432-0.092193 0.025433-0.063581 0.023843-0.147827 0.044507-0.068349 0.023843-0.241609 0.074708-0.074708 0.025432-0.087424 0.023843-0.123984 0.038149-0.087424 0.03179-0.079477 0.023843-0.074708 0.025433-0.162132 0.047686-0.079476 0.03179-0.076298 0.025433-0.147826 0.042917-0.063582 0.025433-0.092192 0.03179-0.061992 0.017485-0.149416 0.049276-0.154185 0.050865-0.074708 0.023843-0.081066 0.03179-0.074708 0.023843-0.079476 0.025433-0.076298 0.025432-0.079476 0.031791-0.074708 0.023843-0.143058 0.049275-0.074708 0.025433-0.087424 0.031791-0.061992 0.017484-0.085835 0.031791-0.06835 0.023843-0.143057 0.055634-0.081067 0.025432-0.079476 0.031791-0.076298 0.023843-0.085834 0.03179-0.063582 0.023843-0.085834 0.031791-0.063582 0.017485-0.1669 0.063581-0.055634 0.017485-0.085835 0.03179-0.068349 0.023843-0.087425 0.031791-0.06835 0.025433-0.162132 0.061991-0.143058 0.047686-0.061991 0.025433-0.085835 0.03179-0.06835 0.025433-0.081066 0.031791-0.074708 0.023842-0.1367 0.055634-0.074708 0.025433-0.085834 0.03179-0.06835 0.023843-0.081066 0.031791-0.074708 0.030201-0.079477 0.031791-0.057223 0.023843-0.162132 0.061991-0.061992 0.019075-0.085835 0.036559-0.068349 0.025432-0.081067 0.031791-0.068349 0.023843-0.111268 0.049275-0.106498 0.038149-0.074708 0.031791-0.079477 0.030201-0.074708 0.031791-0.074708 0.023843-0.079476 0.03179-0.06994 0.030201-0.149416 0.061992-0.068349 0.025432-0.079477 0.031791-0.155774 0.060402-0.055634 0.025433-0.093782 0.036559-0.036559 0.012716-0.181207 0.074708-0.055634 0.025433-0.085834 0.036559-0.063581 0.025432-0.085835 0.03656-0.06835 0.03179-0.123983 0.047686-0.087425 0.038149-0.079476 0.031791-0.224124 0.092192-0.074708 0.038149-0.106499 0.042918-0.098551 0.044506-0.079476 0.031791-0.151006 0.060402-0.073118 0.038149-0.074708 0.031791-0.119215 0.047686-0.092193 0.038148-0.074708 0.03656-0.06835 0.03179-0.079476 0.031791-0.06994 0.030201-0.079476 0.036559-0.063582 0.025433-0.154184 0.06835-0.063581 0.025432-0.079477 0.036559-0.06835 0.031791-0.079476 0.036559-0.063582 0.031791-0.087424 0.036559-0.092193 0.036559-0.111267 0.055634-0.074708 0.03179-0.081066 0.03656-0.063581 0.025432-0.079477 0.036559-0.063581 0.031791-0.147826 0.06835-0.061992 0.03179-0.087424 0.03656-0.061992 0.025432-0.079477 0.042918-0.063581 0.025432-0.085835 0.042917-0.03179 0.012717-0.179617 0.079476-0.061992 0.031791-0.087424 0.036559-0.055634 0.031791-0.087424 0.036559-0.055634 0.025432-0.211407 0.10491-0.085835 0.038148-0.055634 0.031791-0.087424 0.036559-0.063581 0.031791-0.158953 0.073118-0.125573 0.063581-0.06835 0.03656-0.079477 0.036559-0.063581 0.031791-0.079477 0.036559-0.068349 0.038148-0.093783 0.042918-0.111267 0.049275-0.074708 0.044507-0.06835 0.031791-0.079476 0.036559-0.063582 0.031791-0.079476 0.041327-0.063581 0.031791-0.143058 0.06835-0.06835 0.036559-0.079477 0.038149-0.063581 0.031791-0.079477 0.042917-0.063581 0.031791-0.278168 0.141468-0.149416 0.074708-0.061991 0.036559-0.079477 0.038149-0.057223 0.03179-0.211408 0.10491-0.079476 0.042917-0.063582 0.031791-0.079476 0.042917-0.06835 0.036559-0.074708 0.038149-0.079477 0.042917-0.119215 0.063581-0.068349 0.03656-0.074708 0.036559-0.06835 0.038149-0.074708 0.036559-0.074708 0.042917-0.092193 0.050865-0.10014 0.047686-0.074708 0.044507-0.06835 0.038149-0.147827 0.073118-0.06835 0.038149-0.087424 0.049275-0.104909 0.063582-0.074708 0.036559-0.074708 0.042917-0.06835 0.031791-0.074708 0.042917-0.063581 0.036559-0.171669 0.093783-0.031791 0.012716-0.079477 0.049276-0.057223 0.03179-0.079476 0.042918-0.063582 0.036559-0.079476 0.044507-0.057223 0.03179-0.143058 0.079477-0.061992 0.03179-0.074708 0.042918-0.061991 0.036559-0.079477 0.044507-0.063581 0.036559-0.073119 0.042918-0.06835 0.038148-0.130341 0.074708-0.06835 0.042918-0.074708 0.036559-0.055634 0.038149-0.081066 0.042917-0.185975 0.111267-0.074708 0.044507-0.06835 0.042917-0.06835 0.038149-0.074708 0.042917-0.061991 0.03656-0.074708 0.044507-0.087424 0.049275-0.10491 0.063581-0.068349 0.041328-0.074708 0.044507-0.06835 0.036559-0.20505 0.130342-0.123983 0.074708-0.06835 0.038149-0.074708 0.042917-0.06835 0.042917-0.074708 0.044507-0.055634 0.036559-0.09855 0.055634-0.174849 0.111267-0.061992 0.038149-0.073118 0.042917-0.063581 0.044507-0.079477 0.042917-0.063581 0.03656-0.123984 0.081066-0.061991 0.038149-0.073119 0.042917-0.063581 0.042917-0.073119 0.050865-0.063581 0.036559-0.085834 0.049276-0.06835 0.044507-0.111268 0.06835-0.063581 0.036559-0.073118 0.049275-0.063581 0.038149-0.079477 0.055634-0.055634 0.03179-0.130341 0.085835-0.044507 0.025433-0.147827 0.098551-0.081066 0.049275-0.055633 0.038149-0.087424 0.055633-0.049276 0.031791-0.130342 0.085835-0.050865 0.03179-0.085834 0.055634-0.055634 0.036559-0.087424 0.057223-0.049276 0.031791-0.149415 0.098551-0.111268 0.079476-0.050865 0.031791-0.085834 0.055634-0.187565 0.123983-0.1367 0.087424-0.036559 0.025433-0.098551 0.06676-0.044507 0.031791-0.098551 0.06835-0.16849 0.111267-0.006358 0.006358-0.130342 0.087424-0.049275 0.031791-0.087425 0.060402-0.047685 0.038149-0.095372 0.061991-0.042918 0.031791-0.130341 0.085835-0.031791 0.019074-0.104909 0.074708-0.042917 0.031791-0.093783 0.060402-0.049275 0.031791-0.104909 0.079476-0.025433 0.012716-0.136699 0.100141-0.031791 0.025432-0.098551 0.06835-0.042917 0.031791-0.100141 0.06676-0.036559 0.025433-0.130342 0.092193-0.019074 0.012716-0.117625 0.087424-0.038149 0.023843-0.098551 0.06835-0.044507 0.03179-0.111267 0.079477-0.019075 0.014306-0.130341 0.098551-0.031791 0.019074-0.104909 0.074708-0.036559 0.031791-0.098551 0.06676-0.038149 0.031791-0.260683 0.185975-0.042917 0.036559-0.093783 0.063581-0.042917 0.03656-0.106499 0.074708-0.023843 0.017484-0.130341 0.100141-0.019075 0.012716-0.117625 0.085835-0.038149 0.025432-0.098551 0.074708-0.03179 0.025433c-0.092193 0.06676-0.179617 0.130342-0.267041 0.20346l-0.023843 0.012716-0.111268 0.081066-0.03179 0.031791-0.111267 0.079476-0.019075 0.019075-0.1367 0.104909h-0.006358l-0.130341 0.10014-0.025433 0.019075-0.104909 0.079476-0.155774 0.125573h-0.006358l-0.1367 0.104909-0.017485 0.012717-0.111267 0.092192-0.03179 0.019075-0.106499 0.079476-0.031791 0.025433c-0.085835 0.06835-0.171669 0.143058-0.259093 0.211408l-0.025433 0.012716-0.111267 0.087424-0.025432 0.019074-0.117626 0.098551-0.012716 0.006359-0.267041 0.211407-0.023843 0.017485-0.111268 0.095372-0.019074 0.011127c-0.093782 0.074708-0.181207 0.143058-0.267041 0.217765l-0.019075 0.011127-0.117625 0.093783-0.025432 0.019074-0.123984 0.104909-0.273399 0.217766-0.012716 0.012716-0.123984 0.104909-0.012716 0.006358c-0.085835 0.074708-0.179617 0.149416-0.267041 0.222535l-0.011127 0.006358-0.119215 0.10014-0.017485 0.012717-0.123983 0.104909-0.006358 0.006358-0.267042 0.222534-0.012716 0.014306-0.123983 0.104909-0.006359 0.006358-0.397382 0.333802-0.019075 0.020664-0.123983 0.104909c-0.1367 0.111267-0.267041 0.228893-0.403741 0.348107l-0.006358 0.006358c-0.130342 0.111267-0.267041 0.228893-0.397383 0.346518l-0.006358 0.006358-0.123984 0.106499-0.012716 0.011127c-0.130342 0.111267-0.260683 0.230482-0.391025 0.349696l-0.006358 0.004769-0.397383 0.354466-0.527724 0.483217a93.520083 93.520083 0 0 0-15.380307 18.262127c-6.965327 10.804045-3.848256 25.202021 6.949432 32.156221 10.802456 6.966916 25.202021 3.849845 32.156221-6.946252 0.006358-0.014306 0.012716-0.020664 0.019074-0.031791a46.449288 46.449288 0 0 1 39.18513-21.415757h558.361069a46.223574 46.223574 0 0 1 32.846077 13.579367c9.114373 9.060329 23.842972 9.015822 32.901712-0.093782 9.046023-9.095299 9.028539-23.792107-0.049276-32.858794a93.092499 93.092499 0 0 0-16.101953-12.851362l-0.235251-0.149416c-0.079477-0.049275-0.154185-0.10014-0.228892-0.143058l-0.012717-0.006358-0.106498-0.06835-0.011127-0.006358-0.106499-0.06835-0.012716-0.006358-0.117625-0.06835-0.104909-0.06835-0.012717-0.006358-0.111267-0.06835-0.006358-0.004768-0.111267-0.06835-0.012716-0.006358-0.111268-0.06835-0.007947-0.006358-0.098551-0.055634-0.025433-0.019074-0.092192-0.055634-0.025433-0.012716-0.098551-0.063581-0.019074-0.011127-0.106499-0.061992-0.011127-0.012716-0.10014-0.055634-0.023843-0.019074-0.100141-0.055634-0.019074-0.012716-0.098551-0.055634-0.025432-0.019074-0.098551-0.055633-0.019075-0.011127-0.217766-0.131931-0.023842-0.011127-0.100141-0.055634-0.023843-0.019074-0.10014-0.055634-0.019075-0.012716-0.092193-0.049275-0.038148-0.025433-0.085835-0.049275-0.031791-0.019075-0.087424-0.049275-0.036559-0.019075-0.093783-0.055633-0.023842-0.012716-0.087425-0.055634-0.036559-0.019074-0.087424-0.049276-0.031791-0.019074-0.092193-0.049276-0.03179-0.025432-0.085835-0.042918-0.038149-0.025432-0.079476-0.042917-0.044507-0.025433-0.079477-0.042917-0.038148-0.025433-0.087425-0.042917-0.036559-0.025433-0.093782-0.047686-0.025433-0.020663-0.092193-0.047686-0.038148-0.020664-0.085835-0.047686-0.031791-0.019075-0.087424-0.050865-0.036559-0.017484-0.087424-0.050866-0.03656-0.017484-0.087424-0.050865-0.036559-0.017485-0.087424-0.050865-0.031791-0.017485-0.085835-0.050865-0.038148-0.017485-0.092193-0.050865-0.031791-0.017485-0.085835-0.044507-0.038148-0.023843-0.087425-0.044506-0.030201-0.017485-0.093782-0.050865-0.031791-0.017485-0.092192-0.050865-0.031791-0.017485-0.092193-0.049276-0.123983-0.063581-0.031791-0.017485-0.092193-0.050865-0.038149-0.017484-0.085834-0.049276-0.038149-0.019074-0.079477-0.044507-0.044506-0.023843-0.079477-0.038149-0.044507-0.023843-0.079476-0.044507-0.044507-0.023843-0.079477-0.038149-0.044507-0.023842-0.081066-0.038149-0.042917-0.031791-0.081066-0.036559-0.042918-0.023843-0.081066-0.044507-0.049275-0.017485-0.081066-0.044507-0.038149-0.023843-0.079477-0.038148-0.050865-0.023843-0.074708-0.044507-0.047686-0.023843-0.082655-0.038149-0.042918-0.023843-0.079476-0.038149-0.174849-0.087424-0.074708-0.042917-0.049275-0.025433-0.074708-0.017485-0.055634-0.025432-0.37354-0.185975-0.079476-0.03656-0.050865-0.025432-0.079477-0.042917-0.044507-0.019075-0.079476-0.044507-0.050865-0.023843-0.074708-0.03179-0.049276-0.023843-0.079476-0.038149-0.044507-0.023843-0.079477-0.038149-0.044507-0.023843-0.081066-0.038148-0.055633-0.025433-0.06835-0.036559-0.055634-0.025433-0.123983-0.061991-0.074708-0.031791-0.055634-0.023843-0.074708-0.036559-0.055633-0.025433-0.074708-0.03179-0.174849-0.085835-0.079476-0.036559-0.044507-0.025433-0.079477-0.038149-0.057223-0.023842-0.074708-0.031791-0.047686-0.023843-0.082655-0.038149-0.130342-0.055633-0.042917-0.025433-0.079477-0.036559-0.050865-0.019075-0.079477-0.036559-0.044506-0.025432-0.260684-0.111267-0.081066-0.038149-0.049275-0.023843-0.081066-0.031791-0.123984-0.061992-0.055633-0.023843-0.074708-0.03179-0.049276-0.025433-0.081066-0.03179-0.050865-0.023843-0.079476-0.031791-0.050865-0.023843-0.079477-0.036559-0.050865-0.025433-0.079477-0.03179-0.044506-0.017485-0.079477-0.038149-0.057223-0.023843-0.074708-0.03179-0.047686-0.023843-0.082656-0.031791-0.047686-0.025433-0.082655-0.03179-0.042918-0.023843-0.079476-0.031791-0.057223-0.023843-0.074708-0.03179-0.049276-0.023843-0.079476-0.031791-0.050865-0.023843-0.087425-0.031791-0.042917-0.023843-0.079477-0.03179-0.050865-0.023843-0.079476-0.031791-0.050865-0.019074-0.079477-0.036559-0.057223-0.019075-0.074708-0.03179-0.055633-0.023843-0.074708-0.031791-0.055634-0.023843-0.074708-0.031791-0.055634-0.023843-0.068349-0.025432-0.063582-0.025433-0.073118-0.03179-0.055634-0.023843-0.074708-0.031791-0.055633-0.017485-0.074708-0.03179-0.055634-0.023843-0.081066-0.031791-0.055634-0.017485-0.074708-0.03179-0.055633-0.025433-0.074708-0.03179-0.055634-0.015896-0.081066-0.03179-0.049275-0.019075-0.081066-0.036559-0.055634-0.019074-0.074708-0.031791-0.055634-0.017485-0.074708-0.03179-0.055633-0.025433-0.074708-0.023843-0.055634-0.025432-0.074708-0.031791-0.055633-0.017485-0.081066-0.031791-0.055634-0.023843-0.06835-0.025432-0.063581-0.025433-0.073119-0.023842-0.063581-0.025433-0.06676-0.023843-0.063581-0.025432-0.073119-0.025433-0.055633-0.023843-0.081067-0.031791-0.055633-0.019074-0.074708-0.031791-0.055634-0.015895-0.081066-0.031791-0.055633-0.019074-0.074708-0.031791-0.055634-0.017484-0.074708-0.031791-0.063581-0.019074-0.073119-0.031791-0.055633-0.015895-0.081066-0.031791-0.055634-0.019074-0.074708-0.042918-0.130342-0.044507-0.063581-0.023843-0.073118-0.025432-0.055634-0.025433-0.074708-0.023843-0.063581-0.025432-0.128752-0.042917-0.074708-0.031791-0.055634-0.017485-0.081066-0.03179-0.055633-0.019075-0.079477-0.03179-0.057223-0.015896-0.079477-0.027022-0.050865-0.017485-0.079476-0.03179-0.131931-0.042918-0.061992-0.019074-0.074708-0.031791-0.055634-0.017485-0.079476-0.025432-0.050865-0.017485-0.087425-0.03179-0.049275-0.019075-0.087424-0.023843-0.047686-0.019074-0.082656-0.031791-0.055633-0.011127-0.079477-0.03179-0.050865-0.019075-0.087424-0.03179-0.185975-0.060402-0.079477-0.025433-0.057223-0.019074-0.079477-0.023843-0.057223-0.019075-0.079476-0.025432-0.057224-0.017485-0.079476-0.031791-0.050865-0.012716-0.085835-0.03179-0.050865-0.011127-0.085835-0.031791-0.044506-0.011127-0.085835-0.03179-0.055634-0.012716-0.081066-0.031791-0.049275-0.011127-0.087425-0.03179-0.049275-0.011127-0.087424-0.031791-0.042918-0.012716-0.093782-0.031791-0.049275-0.015895-0.130342-0.038149-0.087424-0.03179-0.049276-0.012717-0.087424-0.023843-0.049275-0.019074-0.087425-0.025432-0.055633-0.017485-0.079477-0.025433-0.057223-0.012716-0.079476-0.023843-0.057224-0.019074-0.079476-0.025433-0.050865-0.019074-0.087424-0.023843-0.055634-0.019075-0.079477-0.025432-0.057223-0.011127-0.079476-0.025432-0.057223-0.019075-0.079477-0.023843-0.057223-0.019074-0.079477-0.025433-0.057223-0.011126-0.085835-0.025433-0.044506-0.019074-0.092193-0.023843-0.049276-0.012716-0.087424-0.025433-0.049275-0.019074-0.087425-0.017485-0.055633-0.019074-0.079477-0.025433-0.057223-0.011127-0.079477-0.025432-0.057223-0.019075-0.087424-0.023843-0.055633-0.012716-0.079477-0.025432-0.057223-0.019075-0.079477-0.017485-0.057223-0.019074-0.079476-0.025432-0.063582-0.011127-0.079476-0.025433-0.050865-0.012716-0.085835-0.025432-0.055634-0.011127-0.087424-0.025433-0.049275-0.019074-0.087425-0.017485-0.049275-0.019074-0.087424-0.025433-0.049276-0.012716-0.087424-0.017485-0.055634-0.019074-0.079476-0.019075-0.063581-0.017484-0.079477-0.019075-0.057223-0.019074-0.079477-0.019075-0.063581-0.017484-0.079476-0.019075-0.057224-0.019074-0.079476-0.017485-0.057223-0.012716-0.085835-0.025433-0.055634-0.012716-0.081066-0.017485-0.055633-0.019074-0.081066-0.019075-0.063582-0.012716-0.079476-0.023843-0.055634-0.012716-0.081066-0.025433-0.061992-0.012716-0.074708-0.017485-0.136699-0.038148-0.074708-0.017485-0.06835-0.012717-0.20505-0.055633-0.073118-0.019075-0.063581-0.012716-0.079477-0.019074-0.063581-0.017485-0.073119-0.019074-0.063581-0.012717-0.079477-0.019074-0.063581-0.011127-0.073118-0.019074-0.063582-0.019074-0.079476-0.019075-0.061992-0.011127-0.074708-0.019074-0.061992-0.012716-0.079476-0.025433-0.063581-0.011126-0.074708-0.019075-0.06835-0.012716-0.073119-0.019074-0.068349-0.011127-0.06835-0.019075-0.06835-0.012716-0.074708-0.019074-0.06835-0.011127-0.074708-0.019074-0.063581-0.012717-0.073119-0.019074-0.06835-0.017485-0.074708-0.012716-0.068349-0.012716-0.074708-0.019075-0.061992-0.012716-0.079477-0.017485-0.063581-0.012716-0.079476-0.019074-0.063582-0.012717-0.073118-0.017484-0.063581-0.012717-0.079477-0.019074-0.063581-0.012716-0.079477-0.017485-0.055633-0.019075-0.079477-0.019074-0.063581-0.012716-0.079477-0.017485-0.057223-0.006358-0.087424-0.019075-0.055634-0.012716-0.085835-0.019074-0.050865-0.011127-0.154184-0.03179-0.074708-0.012717-0.063581-0.012716-0.079477-0.017485-0.06835-0.012716-0.074708-0.012716-0.061991-0.019075-0.079477-0.011126-0.063581-0.012717-0.079477-0.012716-0.057223-0.012716-0.079477-0.019075-0.063581-0.011126-0.085835-0.012717-0.055633-0.012716-0.081066-0.019074-0.06835-0.012716-0.074708-0.011127-0.063581-0.012716-0.079477-0.012717-0.061992-0.012716-0.079476-0.017485-0.063581-0.012716-0.079477-0.012716-0.069939-0.012717-0.073119-0.012716-0.063581-0.017485-0.079477-0.012716-0.063581-0.012716-0.079476-0.012716-0.063582-0.012717-0.079476-0.012716-0.06835-0.011127-0.074708-0.012716-0.06835-0.012716-0.149416-0.025433-0.06835-0.011126-0.073118-0.012717-0.1367-0.025432-0.074708-0.012716-0.06835-0.011127-0.081066-0.012716-0.06835-0.012717-0.074708-0.012716-0.06835-0.012716-0.074708-0.012716-0.068349-0.011127-0.073119-0.012716-0.063581-0.012717-0.085835-0.012716-0.055633-0.006358-0.087425-0.011127-0.063581-0.012716-0.079476-0.012716-0.06835-0.006358-0.074708-0.012716-0.06835-0.012717-0.079477-0.011126-0.06835-0.012717-0.074708-0.012716-0.063581-0.006358-0.079476-0.012716-0.063582-0.012717-0.085834-0.011126-0.055634-0.012717-0.087424-0.012716-0.061992-0.006358-0.079476-0.012716-0.063582-0.006358-0.079476-0.017485-0.063582-0.006358-0.085834-0.012717-0.049276-0.006358-0.095372-0.012716-0.060402-0.006358-0.079476-0.012716-0.06994-0.011127-0.074708-0.006358-0.06835-0.012716-0.079476-0.012717-0.063581-0.006358-0.079477-0.012716-0.06835-0.006358-0.074708-0.011127-0.063581-0.006358-0.085835-0.012716-0.061992-0.006358-0.079476-0.012717-0.069939-0.006358-0.074708-0.011126-0.06835-0.006359-0.079477-0.012716-0.063581-0.006358-0.079477-0.012716-0.063581-0.006358-0.085835-0.012717-0.063581-0.006358-0.079476-0.011126-0.06835-0.006359-0.079477-0.012716-0.063581-0.006358-0.079477-0.006358-0.063581-0.012716-0.085835-0.006358-0.055633-0.006359-0.087425-0.011126-0.063581-0.006358-0.085834-0.012717-0.061992-0.006358-0.087424-0.006358-0.055634-0.006358-0.085835-0.012716-0.198691-0.023843-0.093783-0.006358-0.055633-0.006359-0.093782-0.012716-0.147827-0.019074h-0.044507l-0.098551-0.011127-0.055633-0.006358-0.087425-0.012716-0.055633-0.006358-0.093783-0.006359-0.061991-0.006358-0.079477-0.006358-0.069939-0.006358-0.079477-0.011127-0.074708-0.006358-0.06835-0.006358-0.149416-0.012716-0.079476-0.006358-0.138289-0.012716-0.074708-0.006359-0.061992-0.006358-0.085835-0.006358-0.063581-0.004768-0.085835-0.006359-0.063581-0.006358-0.085835-0.006358-0.055633-0.006358-0.087425-0.006358-0.149415-0.012716-0.06835-0.006358-0.147827-0.011127-0.074708-0.012716-0.298832-0.025433h-0.068349l-0.079477-0.006358-0.06835-0.006358-0.081066-0.006358-0.063581-0.006358-0.079477-0.004769-0.06835-0.006358-0.079476-0.006358-0.06994-0.006358-0.079476-0.006359h-0.06835l-0.074708-0.006358-0.063581-0.006358-0.085835-0.006358h-0.063581l-0.085835-0.006358-0.06835-0.006358-0.079476-0.006358-0.149416-0.011127-0.081066-0.006358h-0.063582l-0.098551-0.006358-0.047686-0.006358h-0.10014l-0.050865-0.006359-0.092193-0.006358h-0.055634l-0.087424-0.006358h-0.063581l-0.079477-0.006358-0.068349-0.006358h-0.06835l-0.079477-0.004769h-0.081066l-0.06835-0.006358-0.074708-0.006358h-0.074708l-0.063581-0.006358h-0.085835l-0.055633-0.006358h-0.093783l-0.055633-0.006358h-0.098551l-0.044507-0.006358h-0.098551l-0.049276-0.006359h-0.10014l-0.042917-0.006358h-0.106499l-0.06835-0.006358h-0.079476l-0.074708-0.006358h-0.143058l-0.079477-0.004768h-0.057223l-0.093782-0.006359h-0.055634l-0.092193-0.006358h-0.230482l-0.06835-0.006358h-0.217765l-0.085835-0.006358h-0.211408l-0.087424-0.006358h-0.446658l-0.093783-0.006358h-1.154c-0.081066-0.012716-0.162132-0.012716-0.247966-0.019075z m0 0" fill="#FFD700" p-id="5559"></path><path d="M791.590634 279.180534H326.291862c-25.693186 0-46.530354 20.83081-46.530354 46.530354v604.885065c0 25.699544 20.83081 46.531944 46.530354 46.531944h380.227049a93.063887 93.063887 0 0 0 65.798654-27.252517l38.546137-38.546137a93.059118 93.059118 0 0 0 27.257286-65.803423V325.710888c0-25.699544-20.832399-46.530354-46.530354-46.530354z m0 0" fill="#FFA300" p-id="5560"></path><path d="M777.960401 804.636713l-112.329008 112.330598a46.527175 46.527175 0 0 1-32.901711 13.628642H279.761508c-25.694776 0-46.525585-20.83081-46.525585-46.525585V279.182124c0-25.699544 20.83081-46.531944 46.525585-46.531944h465.30354c25.693186 0 46.525585 20.832399 46.525586 46.531944v492.556057c0 12.336354-4.898936 24.176773-13.630233 32.901711z m0 0" fill="#CCD4FF" p-id="5561"></path><path d="M605.472397 744.477716c25.699544 0 46.530354 20.832399 46.530354 46.531944v93.055939c0 25.699544-20.83081 46.530354-46.530354 46.530354-25.693186 0-46.525585-20.83081-46.525586-46.530354v-93.055939c-0.006358-25.699544 20.826041-46.531944 46.525586-46.531944z m0 0M326.291862 232.648591h372.242832c25.693186 0 46.525585 20.832399 46.525586 46.531943s-20.832399 46.530354-46.525586 46.530354H326.291862c-25.699544 0-46.530354-20.83081-46.530354-46.530354s20.83081-46.531944 46.530354-46.531943z m0 0" fill="#A4B1FF" p-id="5562"></path><path d="M419.35416 465.298771c0 25.699544-20.832399 46.530354-46.531944 46.530354s-46.530354-20.83081-46.530354-46.530354c0-25.693186 20.83081-46.531944 46.530354-46.531943s46.531944 20.838757 46.531944 46.531943z m0 0" fill="#C175FF" p-id="5563"></path><path d="M512.410099 418.766828h139.592652c25.699544 0 46.531944 20.832399 46.531943 46.531943S677.702295 511.829125 652.002751 511.829125h-139.592652c-25.693186 0-46.525585-20.83081-46.525585-46.530354 0-25.693186 20.832399-46.531944 46.525585-46.531943z m0 0M512.410099 558.359479h139.592652c25.699544 0 46.531944 20.832399 46.531943 46.531944 0 25.693186-20.832399 46.525585-46.531943 46.525585h-139.592652c-25.693186 0-46.525585-20.832399-46.525585-46.525585 0-25.699544 20.832399-46.531944 46.525585-46.531944z m0 0M512.410099 697.947362h139.592652c25.699544 0 46.531944 20.83081 46.531943 46.530354 0 25.693186-20.832399 46.531944-46.531943 46.531944h-139.592652c-25.693186 0-46.525585-20.838757-46.525585-46.531944 0-25.699544 20.832399-46.530354 46.525585-46.530354z m0 0" fill="#33527D" p-id="5564"></path><path d="M419.35416 604.891423c0 25.693186-20.832399 46.525585-46.531944 46.525585s-46.530354-20.832399-46.530354-46.525585c0-25.699544 20.83081-46.531944 46.530354-46.531944s46.531944 20.832399 46.531944 46.531944z m0 0" fill="#079CFF" p-id="5565"></path><path d="M419.35416 744.477716c0 25.699544-20.832399 46.531944-46.531944 46.531944s-46.530354-20.832399-46.530354-46.531944 20.83081-46.530354 46.530354-46.530354 46.531944 20.83081 46.531944 46.530354z m0 0" fill="#FFBE00" p-id="5566"></path><path d="M675.268722 139.586293h-23.265971c0-77.092275-62.494018-139.586293-139.592652-139.586293-77.092275 0-139.587883 62.494018-139.587883 139.586293h-23.264382c-38.546138 0-69.796326 31.250188-69.796326 69.796326 0 38.546138 31.250188 69.796326 69.796326 69.796326h325.710888c38.546138 0 69.796326-31.250188 69.796326-69.796326 0-38.546138-31.250188-69.796326-69.796326-69.796326zM512.410099 186.118237c-25.693186 0-46.531944-20.832399-46.531943-46.531944 0-25.693186 20.832399-46.530354 46.531943-46.530354s46.530354 20.83081 46.530354 46.530354-20.83081 46.531944-46.530354 46.531944z m0 0" fill="#7D8FAC" p-id="5567"></path><path d="M579.741062 21.4396c-12.846593-0.012716-23.27074 10.395536-23.283457 23.246898a23.280278 23.280278 0 0 0 9.785156 18.982184 93.337286 93.337286 0 0 1 39.229636 75.92397c0 25.693186 20.83081 46.531944 46.530354 46.531943h6.458266c12.852951 0 23.264382-10.419379 23.264382-23.265972s-10.411431-23.265972-23.264382-23.265971h-6.458266v-1.141284l-0.006358-0.187565v-0.495934l-0.006359-0.179617v-0.267041l-0.006358-0.198691v-0.249557l-0.004768-0.185975v-0.247967l-0.006358-0.192333v-0.049276l-0.006359-0.187564-0.006358-0.042918v-0.198691l-0.006358-0.198692v-0.042917l-0.006358-0.198691v-0.025433l-0.006358-0.192333v-0.019075l-0.006358-0.205049-0.006358-0.031791-0.006358-0.20346v-0.012716l-0.006359-0.192333v-0.031791l-0.004768-0.190744v-0.044507l-0.012716-0.198691v-0.006358l-0.006359-0.198692v-0.036559l-0.012716-0.192333v-0.031791l-0.006358-0.192333v-0.019074l-0.012716-0.198692v-0.036559l-0.006358-0.192333-0.006358-0.038149-0.004769-0.179617v-0.025433l-0.012716-0.190743v-0.050865l-0.012717-0.185976v-0.03179l-0.012716-0.185975v-0.023843l-0.012716-0.198692v-0.038149l-0.011127-0.198691v-0.012716l-0.006358-0.198692-0.006358-0.03179-0.012716-0.197102v-0.031791l-0.025433-0.403741-0.006358-0.036559-0.011127-0.192333v-0.038149l-0.012716-0.185975-0.006358-0.019075-0.012716-0.198691v-0.036559l-0.012717-0.192334v-0.03179l-0.012716-0.179617-0.006358-0.031791-0.011127-0.185975v-0.047686l-0.019074-0.193923v-0.031791l-0.012716-0.1669-0.006358-0.042918-0.012717-0.187564v-0.042918l-0.017484-0.190744v-0.020663l-0.019075-0.179618v-0.042917l-0.019074-0.185975v-0.044507l-0.012716-0.179617-0.004769-0.019074-0.012716-0.190744-0.006358-0.044507-0.012717-0.192333-0.006358-0.031791-0.012716-0.174848-0.006358-0.03656-0.017485-0.185975v-0.042917l-0.019074-0.192333-0.006359-0.025433-0.012716-0.185975-0.006358-0.025433-0.017485-0.190743v-0.044507l-0.025432-0.192334v-0.019074l-0.019075-0.179617v-0.038149l-0.017484-0.185975-0.006359-0.049275-0.019074-0.174849-0.006358-0.036559-0.019074-0.174849v-0.042917l-0.017485-0.185975-0.006358-0.042917-0.019075-0.181207-0.006358-0.017485-0.019074-0.185975-0.006358-0.050865-0.017485-0.185975v-0.031791l-0.025433-0.173259v-0.036559l-0.019074-0.185975-0.006358-0.044507-0.017485-0.185975-0.006358-0.036559-0.019075-0.168491-0.006358-0.036559-0.023843-0.185975v-0.044507l-0.025432-0.190744v-0.014306l-0.025433-0.179617-0.006358-0.049275-0.017485-0.185975-0.006358-0.038149-0.025432-0.190744v-0.007948l-0.023843-0.185975-0.006358-0.049275-0.019075-0.181207-0.006358-0.047686-0.025432-0.162132v-0.031791l-0.023843-0.185975-0.006359-0.049275-0.025432-0.181207-0.006358-0.042917-0.017485-0.155774-0.006358-0.047686-0.025433-0.181207-0.006358-0.049275-0.023843-0.181207-0.006358-0.036559-0.019074-0.162132-0.006358-0.042918-0.025433-0.179617-0.006358-0.050865-0.023843-0.185975-0.006358-0.017485-0.031791-0.217765-0.023843-0.179618-0.006358-0.057223-0.025432-0.147826-0.006358-0.057223-0.023843-0.160543-0.006359-0.063581-0.025432-0.166901-0.012716-0.061992-0.017485-0.143058-0.031791-0.216176-0.012716-0.063581-0.031791-0.216176-0.023843-0.155774-0.006358-0.047686-0.03179-0.174849-0.004769-0.055633-0.031791-0.174849-0.006358-0.042917-0.017485-0.143058-0.012716-0.063581-0.025432-0.166901-0.012717-0.055634-0.023843-0.160542-0.006358-0.050865-0.025432-0.154185-0.012716-0.063581-0.031791-0.173259-0.004769-0.042917-0.025432-0.162133-0.006358-0.036559-0.031791-0.179617-0.004769-0.044507-0.03179-0.179617-0.004769-0.049275-0.025432-0.149416-0.012717-0.049276-0.03179-0.16849-0.004769-0.061992-0.03179-0.173259-0.012717-0.049275-0.023843-0.1367-0.006358-0.063581-0.03179-0.166901-0.011127-0.061992-0.025433-0.149416-0.012716-0.06835-0.025432-0.143057-0.011127-0.055634-0.031791-0.166901-0.012716-0.063581-0.023843-0.154185-0.006358-0.036559-0.038149-0.16849-0.006358-0.061992-0.031791-0.160543-0.011126-0.063581-0.025433-0.128752-0.017485-0.081066-0.025432-0.143058-0.012716-0.06835-0.031791-0.162132-0.036559-0.185975-0.011127-0.06835-0.031791-0.154184-0.012716-0.074708-0.03179-0.1367-0.017485-0.087424-0.019075-0.117626-0.019074-0.074708-0.031791-0.155774-0.011126-0.06835-0.023843-0.123983-0.025433-0.104909-0.019074-0.111267-0.019075-0.074708-0.03179-0.155774-0.011127-0.06835-0.031791-0.130342-0.011126-0.074708-0.031791-0.143058-0.012716-0.068349-0.036559-0.160543-0.012717-0.055634-0.03179-0.136699-0.023843-0.055634-0.03656-0.16849-0.012716-0.061992-0.038149-0.166901-0.011126-0.050865-0.031791-0.143058-0.006358-0.047686-0.036559-0.16849-0.019075-0.063581-0.038148-0.166901-0.004769-0.042917-0.031791-0.1367-0.012716-0.06835-0.036559-0.162132-0.012716-0.061992-0.031791-0.130342-0.017485-0.085834-0.03179-0.123984-0.012717-0.074708-0.036559-0.155774-0.019074-0.06835-0.031791-0.123983-0.011127-0.063581-0.038148-0.154185-0.011127-0.061992-0.050865-0.222534-0.031791-0.125573-0.015895-0.06835-0.038149-0.160542-0.019074-0.063582-0.036559-0.158953-0.012717-0.057223-0.03179-0.130342-0.012717-0.061991-0.042917-0.155774-0.019074-0.074708-0.031791-0.130342-0.015895-0.073118-0.031791-0.1367-0.019074-0.063581-0.038149-0.160543-0.017485-0.055634-0.038149-0.143057-0.012716-0.055634-0.036559-0.155774-0.012716-0.055634-0.042918-0.162132-0.012716-0.06835-0.03179-0.117625-0.023843-0.079477-0.031791-0.136699-0.017485-0.074708-0.044507-0.155774-0.012716-0.063582-0.031791-0.116036-0.015895-0.063581-0.044507-0.154184-0.019074-0.074708-0.036559-0.143058-0.019075-0.074708-0.031791-0.117625-0.017484-0.06835-0.038149-0.154185-0.017485-0.06835-0.038149-0.125573-0.023843-0.085834-0.050865-0.198692-0.042917-0.149416-0.019074-0.06835-0.031791-0.117625-0.023843-0.079477-0.055634-0.206639-0.042917-0.154184-0.019074-0.06835-0.031791-0.111267-0.017485-0.06994-0.044507-0.149416-0.019074-0.073118-0.042917-0.155774-0.019075-0.055634-0.03179-0.117625-0.015896-0.074708-0.044507-0.149416-0.025432-0.074708-0.031791-0.117625-0.023843-0.093783-0.03179-0.111267-0.023843-0.074708-0.042918-0.149416-0.025432-0.074708-0.031791-0.123983-0.023843-0.079477-0.038149-0.125573-0.017484-0.073118-0.050865-0.149416-0.017485-0.06835-0.031791-0.106499-0.03179-0.098551-0.030202-0.123983-0.025432-0.06835-0.042917-0.149416-0.025433-0.079476-0.031791-0.100141-0.060402-0.217766-0.03179-0.079476-0.031791-0.119215-0.060402-0.198692-0.025433-0.079476-0.042917-0.143058-0.025433-0.081066-0.074708-0.222534-0.023843-0.095372-0.025432-0.079477-0.042917-0.143058-0.031791-0.079476-0.031791-0.106499-0.030201-0.087424-0.036559-0.117625-0.025432-0.081067-0.042918-0.143057-0.025432-0.074708-0.031791-0.104909-0.030201-0.100141-0.036559-0.111267-0.025433-0.087424-0.042917-0.117626-0.031791-0.104909-0.025432-0.081066-0.073119-0.222534-0.025432-0.087424-0.038149-0.100141-0.036559-0.117625-0.031791-0.093783-0.030201-0.079476-0.042917-0.143058-0.025433-0.074708-0.036559-0.100141-0.044507-0.123983-0.023843-0.085835-0.03179-0.087424-0.074708-0.222534-0.031791-0.082656-0.042917-0.123983-0.031791-0.098551-0.023843-0.081066-0.049275-0.130342-0.031791-0.093782-0.023843-0.085835-0.038149-0.106499-0.042917-0.111267-0.025433-0.079476-0.042917-0.125573-0.031791-0.087425-0.036559-0.104909-0.025432-0.074708-0.042918-0.136699-0.061991-0.174849-0.049276-0.128752-0.025432-0.081066-0.03656-0.087424-0.074708-0.222535-0.03179-0.081066-0.047686-0.136699-0.031791-0.079477-0.074708-0.224124-0.038149-0.095372-0.023843-0.06676-0.057223-0.155774-0.023843-0.061992-0.03179-0.098551-0.031791-0.081066-0.047686-0.1367-0.03179-0.074708-0.042918-0.130341-0.038149-0.092193-0.036559-0.087424-0.025432-0.06835-0.055634-0.155774-0.025432-0.06835-0.031791-0.092193-0.085835-0.217766-0.023843-0.074708-0.057223-0.149416-0.03179-0.06835-0.030202-0.092192-0.049275-0.130342-0.031791-0.087424-0.036559-0.079477-0.049275-0.131931-0.031791-0.079476-0.031791-0.087425-0.036559-0.087424-0.047686-0.1367-0.03179-0.068349-0.057224-0.154185-0.023843-0.063581-0.044506-0.098551-0.017485-0.049276-0.063582-0.174848-0.023842-0.047686-0.079477-0.212997-0.007948-0.006358-0.042917-0.10491-0.019074-0.055633-0.06835-0.16849-0.017485-0.055634-0.074708-0.185975-0.019074-0.036559-0.042918-0.106499-0.012716-0.036559-0.074708-0.185975-0.019074-0.038149-0.130342-0.333802-0.019074-0.038149-0.073119-0.185975-0.019074-0.044507-0.042918-0.104909-0.012716-0.025432-0.081066-0.198692-0.019074-0.042917-0.079477-0.198691-0.006358-0.019075-0.050865-0.111267-0.085835-0.217766-0.019074-0.049275a7.53279 7.53279 0 0 1-0.143058-0.329033l-0.006358-0.019075-0.092193-0.217765-0.006358-0.012717-0.143058-0.340159-0.012716-0.038149-0.087424-0.190744-0.012717-0.027022-0.143057-0.333802-0.011127-0.03179-0.087424-0.20505-0.012717-0.025432-0.042917-0.104909-0.012716-0.031791-0.087424-0.197102-0.011127-0.025432-0.149416-0.34175-0.006358-0.012716-0.093783-0.211408-0.011126-0.023843-0.149416-0.335391-0.012717-0.03179-0.087424-0.190744-0.011126-0.031791-0.149416-0.335391-0.012717-0.031791-0.087424-0.185975-0.017485-0.036559-0.149416-0.329033-0.012716-0.031791-0.10014-0.205049-0.004769-0.012716-0.050865-0.111268-0.006358-0.019074-0.098551-0.205049-0.012716-0.023843-0.155774-0.335392-0.004769-0.012716-0.100141-0.217766-0.006358-0.011126-0.160542-0.34175-0.006358-0.006358-0.106499-0.222534v-0.014306c-0.055634-0.111267-0.111267-0.222534-0.160543-0.333802l-0.012716-0.019074-0.106499-0.222534-0.1669-0.349697-0.006359-0.006358-0.1669-0.34016v-0.006358l-0.100141-0.211408-0.019074-0.031791-0.160543-0.329033-0.012716-0.017484-0.098551-0.198692-0.006358-0.025432-0.168491-0.329033-0.012716-0.031791-0.098551-0.198691-0.012716-0.011127-0.166901-0.335391-0.006358-0.019075-0.111267-0.217765-0.063581-0.123984-0.111268-0.211408-0.006358-0.017484c-0.092193-0.187565-0.192333-0.37354-0.286115-0.559515l-0.004769-0.012717-0.174848-0.333801-0.006359-0.007948-0.111267-0.211408-0.006358-0.023843-0.174848-0.329033-0.004769-0.012716-0.111267-0.217766-0.007948-0.006358a8.410211 8.410211 0 0 0-0.173259-0.329033l-0.012716-0.017485-0.297242-0.559515a150.035873 150.035873 0 0 0-1.422631-2.582988l-0.006358-0.006359a140.257076 140.257076 0 0 0-40.768303-45.177662 23.154705 23.154705 0 0 0-13.461741-4.302862z m0 0M721.706884 188.693278c-12.350659 0.014306-22.539556 9.675478-23.210339 22.013421-0.683499 12.318869-10.885111 21.960966-23.227823 21.941892h-325.710888c-12.846593 0.012716-23.254845 10.443222-23.240539 23.291404 0.011127 12.827519 10.411431 23.227823 23.238949 23.23895h327.09696l0.055634-0.004769h0.273399l0.061992-0.006358h0.162132l0.055634-0.006358h0.166901l0.055633-0.006358h0.162132l0.055634-0.006358h0.162132l0.061992-0.006358h0.160543l0.063581-0.006358h0.047686l0.074708-0.006359h0.10014l0.06835-0.004768 0.198692-0.006358h0.006358l0.104909-0.006358h0.006358l0.10014-0.006359h0.055634l0.055634-0.006358h0.049275l0.055634-0.006358h0.111267l0.044507-0.006358h0.063581l0.054044-0.006358h0.063581l0.042918-0.006358h0.061991l0.049276-0.006358 0.055633-0.006358h0.055634l0.055634-0.004769h0.057223l0.047686-0.006358h0.057223l0.055634-0.006358h0.055633l0.055634-0.006358h0.057223l0.047686-0.006359 0.057223-0.006358h0.055634l0.055633-0.006358h0.057223l0.047686-0.006358 0.063581-0.006358h0.042918l0.063581-0.006358 0.047686-0.004769 0.063581-0.006358h0.042918l0.068349-0.006358h0.042918l0.063581-0.006358 0.047686-0.006358 0.057223-0.006358h0.047686l0.069939-0.006358 0.042918-0.006359 0.06835-0.006358h0.038148l0.079477-0.012716h0.031791l0.074708-0.004769 0.03179-0.006358c0.111267-0.006358 0.216176-0.019074 0.327444-0.025432h0.006358l0.10014-0.012716h0.023843l0.087425-0.006359 0.019074-0.006358 0.092193-0.006358 0.025432-0.004768 0.079477-0.006359 0.038149-0.006358 0.068349-0.006358h0.049276l0.063581-0.006358 0.042917-0.006358 0.061992-0.006358 0.049276-0.006358 0.063581-0.006358 0.042917-0.006359 0.061992-0.004768 0.042917-0.006358 0.06835-0.006358h0.031791l0.079476-0.006359 0.031791-0.006358 0.074708-0.006358 0.036559-0.006358 0.06835-0.006358 0.042917-0.006358 0.06835-0.006358 0.038149-0.006358 0.06835-0.004769 0.036559-0.006358 0.074708-0.006358 0.031791-0.006358 0.074708-0.006359 0.036559-0.006358 0.074708-0.006358 0.031791-0.006358 0.079476-0.006358 0.031791-0.006358 0.074708-0.011127 0.03179-0.006358 0.066761-0.006358 0.042917-0.006358 0.074708-0.006358 0.031791-0.006358 0.074708-0.012717h0.03179l0.079477-0.012716h0.03179l0.079477-0.011127 0.025433-0.006358c0.143058-0.019074 0.286116-0.038149 0.433942-0.063581 0.074708-0.004769 0.143058-0.017485 0.211407-0.023843l0.012717-0.006358 0.10014-0.012716h0.011127l0.093782-0.011127 0.019074-0.006358 0.092193-0.012717h0.006358l0.093783-0.012716 0.023843-0.006358 0.087424-0.012716h0.025432l0.079477-0.012716 0.031791-0.004769 0.074708-0.012716 0.03179-0.006358 0.073119-0.012717h0.03179l0.079477-0.012716 0.031791-0.006358 0.074708-0.012716 0.03179-0.004769 0.079477-0.012716 0.025432-0.006358 0.074708-0.012717 0.031791-0.006358 0.079476-0.012716h0.025433l0.074708-0.011127 0.036559-0.012716 0.074708-0.012716h0.031791l0.073118-0.012716 0.031791-0.006358 0.079476-0.012717 0.025433-0.006358 0.087424-0.011127 0.019074-0.006358 0.098551-0.019074h0.006359l0.093782-0.012716 0.011127-0.006358 0.106498-0.017485 0.098551-0.019075h0.006358l0.106499-0.019074c0.286116-0.049275 0.577-0.104909 0.856757-0.160543l0.104909-0.019074h0.006359l0.10014-0.019074h0.004769l0.10014-0.025433h0.012716l0.092193-0.017485 0.012716-0.006358 0.093783-0.012716 0.019074-0.006358 0.085835-0.019075 0.025432-0.004768 0.079477-0.019075 0.025432-0.006358 0.081067-0.012716 0.025432-0.006358 0.079477-0.019075h0.025432l0.087424-0.017484 0.017485-0.006359 0.081066-0.019074 0.025433-0.006358 0.087424-0.012716 0.017485-0.006358 0.087424-0.017485 0.019075-0.006358 0.085834-0.019075 0.019075-0.006358 0.087424-0.017485h0.017485l0.087424-0.025432h0.012716l0.098551-0.019075 0.006358-0.006358c0.497523-0.104909 0.98233-0.216176 1.478264-0.341749h0.006359l0.098551-0.023843 0.106498-0.025432 0.20505-0.049276 0.012716-0.006358 0.092193-0.019074 0.012716-0.006359 0.087424-0.017484 0.017485-0.006359 0.087424-0.025432h0.012717l0.092192-0.023843 0.012717-0.006358 0.093782-0.025433h0.012716l0.092193-0.025432h0.006358l0.100141-0.023843 0.006358-0.006358 0.098551-0.025433a73.789229 73.789229 0 0 0 2.892947-0.831325h0.006358c27.842233-8.686789 47.35691-33.764827 48.935315-62.89299 0.658066-12.802086-9.171596-23.731704-21.975272-24.419972-0.429173-0.025433-0.856757-0.031791-1.277983-0.031791z m0 0" fill="#5E7599" p-id="5568"></path><path d="M652.002751 744.477716h93.062297c25.693186 0 46.525585 20.832399 46.525586 46.531944v27.257285a46.527175 46.527175 0 0 1-13.630233 32.903301l-65.803422 65.803423a46.531944 46.531944 0 0 1-32.903301 13.628642h-27.250927c-25.699544 0-46.530354-20.83081-46.530354-46.530354v-93.062297c0-25.699544 20.83081-46.531944 46.530354-46.531944z m0 0" fill="#DFE5FF" p-id="5569"></path><path d="M349.557834 186.118237h46.530354c12.846593 0 23.265972 10.419379 23.265972 23.265972s-10.419379 23.264382-23.265972 23.264382h-46.530354c-12.846593 0-23.265972-10.417789-23.265972-23.264382 0-12.846593 10.419379-23.265972 23.265972-23.265972z m0 0M512.410099 46.530354h-1.465548l-0.074708 0.006358h-0.292474l-0.073118 0.006358h-0.149416l-0.06835 0.006358h-0.222534l-0.076298 0.006358h-0.222534l-0.06835 0.006359h-0.211408l-0.079476 0.006358h-0.143058l-0.06994 0.006358h-0.123983l-0.098551 0.006358h-0.063581l-0.079477 0.006358h-0.079476l-0.06994 0.004769h-0.06835l-0.079476 0.006358h-0.063581l-0.079477 0.006358h-0.06835l-0.074708 0.006358h-0.074708l-0.074708 0.006358h-0.06835l-0.079476 0.006358h-0.063581l-0.079477 0.006358h-0.069939l-0.147827 0.012717h-0.074708l-0.06835 0.006358h-0.074708l-0.068349 0.006358-0.079477 0.004769h-0.069939l-0.074708 0.006358-0.06835 0.006358h-0.079477l-0.063581 0.006358-0.079477 0.006358-0.063581 0.006358-0.079477 0.006358h-0.068349l-0.06835 0.006358-0.079477 0.006359h-0.063581l-0.079477 0.006358-0.069939 0.006358-0.079477 0.004768-0.068349 0.006359h-0.074708l-0.081066 0.006358-0.093783 0.006358-0.111267 0.012716h-0.055634l-0.087424 0.006358-0.06835 0.006358-0.074708 0.006358-0.079476 0.006359-0.063582 0.004768-0.079476 0.006358-0.1367 0.012717-0.149416 0.012716-0.06835 0.006358-0.074708 0.006358-0.068349 0.006358-0.149416 0.012716-0.066761 0.004769-0.149416 0.012716-0.06835 0.006358-0.074708 0.006359-0.068349 0.006358-0.079477 0.006358-0.063581 0.006358-0.222535 0.019074-0.136699 0.011127-0.224124 0.019074-0.06835 0.006358-0.074708 0.012717-0.06835 0.006358-0.061992 0.006358-0.087424 0.004769-0.047686 0.006358-0.095372 0.006358h-0.017485l-0.123983 0.019074h-0.031791c-0.160543 0.019074-0.322675 0.031791-0.489575 0.049276l-0.130342 0.019074-0.057223 0.006358-0.085835 0.006358-0.055633 0.006358-0.087425 0.012717-0.055633 0.004768-0.081066 0.006358-0.06835 0.012717-0.1367 0.012716-0.074708 0.012716-0.06835 0.006358-0.074708 0.006358-0.074708 0.011127-0.068349 0.006358-0.073119 0.006358-0.06835 0.012717-0.074708 0.006358-0.06835 0.012716-0.068349 0.006358-0.081067 0.006358-0.055633 0.011127-0.079477 0.006358-0.069939 0.012716-0.074708 0.006358-0.06835 0.012717-0.074708 0.006358-0.061992 0.006358-0.079476 0.011127-0.063581 0.006358-0.079477 0.012716-0.063581 0.006358-0.073119 0.012716-0.06835 0.006359-0.074708 0.012716-0.055633 0.004768-0.087424 0.012717-0.031791 0.006358c-0.117625 0.012716-0.235251 0.031791-0.352876 0.049275l-0.038149 0.006358-0.085834 0.012717-0.055634 0.006358-0.081066 0.012716-0.063581 0.006358-0.079477 0.012716-0.055634 0.011127-0.087424 0.012716-0.055633 0.006359-0.087425 0.012716-0.055633 0.006358-0.087424 0.012716-0.047686 0.012716-0.095372 0.011127-0.047686 0.006358-0.087424 0.012717-0.050866 0.006358-0.085834 0.012716-0.055634 0.012716-0.081066 0.011127-0.063581 0.006358-0.079477 0.012716-0.055633 0.012716-0.087425 0.012717-0.055633 0.006358-0.087424 0.011127-0.049276 0.012716-0.093782 0.012716-0.047686 0.006358-0.095372 0.019075-0.128752 0.017484-0.057223 0.012717-0.085835 0.012716-0.050865 0.012716-0.085835 0.012716-0.055633 0.006359-0.093783 0.017484h-0.019074l-0.117625 0.025433h-0.012717c-0.216176 0.036559-0.433942 0.074708-0.651707 0.117625h-0.025433l-0.092193 0.019075-0.049275 0.012716-0.100141 0.011127-0.036559 0.006358-0.093782 0.019074-0.049276 0.012716-0.087424 0.019075-0.049275 0.006358-0.087425 0.017485-0.049275 0.006358-0.093783 0.019074-0.042917 0.006358-0.093782 0.019075-0.047686 0.011126-0.087424 0.012717-0.050865 0.012716-0.085835 0.019074-0.057223 0.006358-0.085835 0.017485-0.050865 0.006358-0.085835 0.019075-0.049275 0.012716-0.095372 0.017485-0.036559 0.006358-0.098551 0.019074-0.036559 0.006359-0.106499 0.025432h-0.019074l-0.117626 0.023843h-0.012716c-0.403741 0.087424-0.801124 0.16849-1.198507 0.254325l-0.011126 0.006358-0.106499 0.019075-0.036559 0.012716-0.100141 0.019074-0.036559 0.011127-0.10014 0.019074-0.03656 0.006358-0.10014 0.025433-0.036559 0.004768-0.098551 0.025433-0.038149 0.006358-0.098551 0.025433-0.038149 0.006358-0.098551 0.023843-0.03179 0.006358-0.104909 0.025432-0.038149 0.006358-0.098551 0.023843-0.038149 0.006359-0.098551 0.025432-0.03179 0.006358-0.10491 0.023843-0.03179 0.006358-0.104909 0.025433-0.031791 0.012716-0.098551 0.023843-0.038149 0.006358-0.123983 0.031791-0.111267 0.023843-0.019075 0.006358c-0.4403 0.106499-0.874242 0.217766-1.316132 0.329033h-0.012716l-0.123983 0.038149h-0.006358l-0.123984 0.03179-0.012716 0.004769-0.117625 0.03179h-0.012717l-0.117625 0.031791-0.023843 0.004769-0.111267 0.03179-0.019075 0.006358-0.119214 0.031791-0.011127 0.004769-0.119215 0.03179-0.017485 0.004769-0.111267 0.031791-0.019074 0.006358-0.119215 0.03179-0.011127 0.004769-0.125573 0.03179h-0.006358c-0.613559 0.174848-1.223939 0.348107-1.83114 0.527725h-0.012717l-0.123983 0.036559-0.006358 0.006358-0.117626 0.031791-0.019074 0.006358-0.117625 0.036559h-0.012717l-0.117625 0.038149-0.012716 0.004769-0.123984 0.038148-0.130341 0.03656-0.006358 0.006358c-0.955308 0.292474-1.905848 0.604022-2.85003 0.925107h-0.006358l-0.123984 0.044507-0.260683 0.085835-0.123983 0.044506-0.006358 0.006359a93.210124 93.210124 0 0 0-44.233481 32.683945 91.720733 91.720733 0 0 0-2.980372 4.283787v0.006359l-0.06835 0.10014-0.012716 0.012716-0.061992 0.098551-0.006358 0.012716-0.06835 0.098551-0.074708 0.111268-0.006358 0.019074-0.073118 0.111267-0.06835 0.100141v0.012716l-0.06835 0.10014-0.012716 0.011127-0.063582 0.106499-0.004768 0.012716-0.063581 0.098551-0.011127 0.019074-0.061992 0.098551-0.006358 0.006358c-0.235251 0.365592-0.472091 0.74549-0.700983 1.117441l-0.006358 0.019074-0.055634 0.087425-0.019074 0.03179-0.049276 0.079477-0.025432 0.03179-0.049276 0.085835-0.019074 0.031791-0.061992 0.111267-0.019074 0.038149-0.042918 0.06676-0.03179 0.050865-0.042918 0.06835-0.03179 0.049275-0.042918 0.06835-0.023843 0.042918-0.044507 0.074708-0.023842 0.049275-0.044507 0.06835-0.023843 0.050865-0.044507 0.06835-0.023843 0.042917-0.044507 0.074708-0.031791 0.042917-0.042917 0.074708-0.023843 0.049276-0.044507 0.06835-0.023843 0.050865-0.044507 0.06676-0.023843 0.044507-0.044507 0.074708-0.023843 0.042917-0.042917 0.074708-0.025432 0.036559-0.042918 0.081067-0.025432 0.042917c-0.074708 0.125573-0.149416 0.249556-0.222535 0.379898l-0.025432 0.049275-0.038149 0.055634-0.031791 0.063581-0.042917 0.073119-0.023843 0.042917-0.044507 0.081066-0.023843 0.038149-0.038148 0.06835-0.031791 0.055633-0.036559 0.061992-0.031791 0.055634-0.036559 0.063581-0.031791 0.054044-0.030201 0.063581-0.031791 0.054044-0.036559 0.06835-0.03179 0.057223-0.03656 0.061992-0.03179 0.055634-0.036559 0.061991-0.061992 0.123984-0.036559 0.055633-0.063582 0.123984-0.036559 0.055633-0.031791 0.063582-0.030201 0.055633-0.036559 0.06835-0.03179 0.055634-0.03656 0.06835-0.03179 0.055633-0.031791 0.06835-0.030201 0.049276-0.036559 0.068349-0.031791 0.055634-0.036559 0.074708-0.025433 0.042917-0.047686 0.093783-0.020664 0.03179-0.130341 0.241609-0.011127 0.031791-0.050865 0.092193-0.017485 0.03179-0.044507 0.092193-0.023843 0.038149-0.044506 0.079476-0.023843 0.044507-0.038149 0.079477-0.023843 0.044507-0.044507 0.079476-0.019074 0.038149-0.042918 0.079477-0.061991 0.125573-0.025433 0.042917-0.042917 0.081066-0.019075 0.042917-0.042917 0.087425-0.019074 0.03179-0.042918 0.092193-0.025432 0.038149-0.042918 0.085835-0.019074 0.03179-0.042917 0.093783-0.079477 0.160542-0.050865 0.087424-0.012716 0.03656-0.049276 0.093782-0.012716 0.031791-0.049275 0.098551-0.012717 0.019074-0.063581 0.123983-0.054044 0.117626-0.006358 0.006358c-0.16849 0.341749-0.329033 0.670782-0.491165 1.010942l-0.006358 0.006358-0.117626 0.249556-0.006358 0.011127-0.055633 0.119215-0.06835 0.1367-0.049276 0.111267-0.06835 0.1367-0.055633 0.117625-0.006358 0.012716-0.049276 0.111267-0.012716 0.019075-0.049276 0.117625h-0.006358c-0.298832 0.64535-0.584948 1.285931-0.869473 1.931281v0.006358l-0.168491 0.384667v0.006358l-0.055633 0.123983v0.006358c-0.074708 0.174848-0.149416 0.341749-0.222535 0.515008v0.006359a92.61246 92.61246 0 0 0-7.090899 29.71629c-0.839273 12.784601 8.810773 23.842972 21.589016 24.737878 0.551567 0.036559 1.104724 0.055634 1.651523 0.055633 12.207601-0.012716 22.328148-9.462481 23.184905-21.638291 1.79935-24.315063 22.029316-43.135115 46.412729-43.18439 12.846593 0.012716 23.27074-10.395536 23.289815-23.24054 0.012716-12.846593-10.393946-23.27074-23.23895-23.291404h-0.050865z m0 0" fill="#CDD4DF" p-id="5570"></path><path d="M661.63849 827.904274l27.260465-27.258875c12.845004-12.846593 33.677403-12.846593 46.523995 0 12.852951 12.846593 12.852951 33.678992 0 46.531944l-27.252516 27.250927c-12.852951 12.852951-33.683761 12.852951-46.530354 0-12.852951-12.846593-12.852951-33.677403 0-46.525585z m0 0" fill="#EFF2FF" p-id="5571"></path></svg>